<svg xmlns="http://www.w3.org/2000/svg" xmlns:xlink="http://www.w3.org/1999/xlink" width="500" zoomAndPan="magnify" viewBox="0 0 375 374.999991" height="500" preserveAspectRatio="xMidYMid meet" version="1.0"><defs><g/><clipPath id="e8fa13344e"><path d="M 98.753906 46 L 276.503906 46 L 276.503906 242.765625 L 98.753906 242.765625 Z M 98.753906 46 " clip-rule="nonzero"/></clipPath></defs><g clip-path="url(#e8fa13344e)"><path fill="#ff5757" d="M 189.585938 73.207031 C 197.710938 64.136719 207.378906 55.332031 218.28125 51.894531 C 227.476562 48.972656 241.160156 50.09375 245.949219 59.699219 C 249.386719 66.585938 247.183594 74.625 241.960938 80.082031 C 240.632812 81.480469 237.492188 83.320312 232.53125 85.59375 C 221.546875 90.640625 210.496094 95.546875 199.378906 100.3125 C 194.746094 102.304688 190.339844 104.761719 186.183594 107.699219 C 185.792969 107.976562 185.433594 107.941406 185.101562 107.59375 C 175.332031 97.289062 164.171875 93.382812 151.492188 88 C 144.789062 85.152344 140.332031 82.691406 138.117188 80.605469 C 131.953125 74.78125 128.492188 63.695312 132.972656 55.800781 C 138.601562 45.890625 152.601562 44.015625 162.488281 48.011719 C 173.734375 52.558594 182.3125 62.851562 188.554688 73.113281 C 188.859375 73.609375 189.203125 73.636719 189.585938 73.207031 Z M 187.878906 90.414062 C 187.269531 91.160156 186.800781 91.082031 186.46875 90.175781 C 182.03125 77.855469 170.96875 64.375 156.996094 63.238281 C 153.695312 62.976562 150.585938 64.382812 150.074219 67.800781 C 149.214844 73.570312 158.085938 80.410156 162.5 82.257812 C 171.714844 86.09375 179.628906 90.550781 186.238281 95.625 C 186.574219 95.882812 186.929688 95.914062 187.304688 95.714844 C 194.921875 91.640625 202.757812 88.054688 210.816406 84.953125 C 216.238281 82.867188 228.128906 77.804688 230.578125 72.671875 C 233.378906 66.769531 227.449219 63.773438 222.816406 64.453125 C 219.957031 64.859375 217.035156 65.960938 214.046875 67.757812 C 203.816406 73.941406 195.097656 81.492188 187.878906 90.414062 Z M 99.726562 114.003906 L 131.097656 114.003906 C 131.628906 114.003906 132.058594 114.433594 132.058594 114.964844 L 132.058594 138.464844 C 132.058594 139.003906 131.628906 139.433594 131.097656 139.433594 L 99.726562 139.433594 C 99.195312 139.433594 98.765625 139.003906 98.765625 138.464844 L 98.765625 114.964844 C 98.765625 114.433594 99.195312 114.003906 99.726562 114.003906 Z M 184.378906 139.40625 L 144.289062 139.40625 C 143.773438 139.40625 143.355469 138.980469 143.355469 138.457031 L 143.339844 115.007812 C 143.339844 114.34375 143.671875 114.015625 144.332031 114.015625 L 184.378906 114.015625 Z M 189.636719 114.019531 L 230.644531 114.03125 C 230.828125 114.03125 230.980469 114.1875 230.980469 114.382812 L 230.980469 138.714844 C 230.980469 139.164062 230.753906 139.390625 230.304688 139.390625 L 189.636719 139.40625 Z M 242.964844 114.003906 L 275.636719 114.003906 C 275.964844 114.003906 276.234375 114.269531 276.234375 114.601562 L 276.234375 138.832031 C 276.234375 139.164062 275.964844 139.433594 275.636719 139.433594 L 242.964844 139.433594 C 242.632812 139.433594 242.367188 139.164062 242.367188 138.832031 L 242.367188 114.601562 C 242.367188 114.269531 242.632812 114.003906 242.964844 114.003906 Z M 184.378906 242.144531 C 182.984375 241.601562 181.472656 240.910156 179.839844 240.074219 C 168.132812 234.074219 156.421875 228.179688 144.695312 222.382812 C 143.863281 221.972656 143.328125 221.121094 143.328125 220.191406 L 143.339844 152.132812 C 143.339844 151.878906 143.464844 151.753906 143.71875 151.753906 L 184.378906 151.800781 Z M 242.355469 214.710938 L 242.339844 152.457031 C 242.339844 152.085938 242.644531 151.78125 243.019531 151.78125 L 265.375 151.78125 C 265.375 151.78125 265.375 151.78125 265.378906 151.78125 C 265.753906 151.78125 266.058594 152.085938 266.058594 152.457031 C 266.058594 152.488281 266.050781 152.519531 266.050781 152.546875 L 259.160156 207.0625 C 259.132812 207.289062 258.996094 207.484375 258.796875 207.582031 L 243.332031 215.3125 C 243.238281 215.351562 243.132812 215.378906 243.035156 215.378906 C 242.660156 215.378906 242.363281 215.082031 242.355469 214.710938 Z M 115.265625 207.132812 L 108.078125 153.578125 C 108.074219 153.53125 108.070312 153.480469 108.070312 153.433594 C 108.070312 152.839844 108.542969 152.363281 109.136719 152.351562 L 131.042969 151.972656 C 131.050781 151.972656 131.050781 151.972656 131.054688 151.972656 C 131.652344 151.972656 132.136719 152.457031 132.136719 153.054688 L 132.304688 214.386719 C 132.304688 214.980469 131.820312 215.464844 131.226562 215.464844 C 131.058594 215.464844 130.890625 215.421875 130.746094 215.347656 L 115.855469 207.960938 C 115.535156 207.796875 115.3125 207.488281 115.265625 207.132812 Z M 189.636719 151.804688 L 230.355469 151.804688 C 230.792969 151.804688 231.007812 152.023438 231.007812 152.445312 L 231.097656 220.367188 C 231.101562 220.367188 231.101562 220.367188 231.101562 220.367188 C 231.101562 221.175781 230.644531 221.910156 229.925781 222.277344 L 189.636719 242.601562 Z M 189.636719 151.804688 " fill-opacity="1" fill-rule="evenodd"/></g><g fill="#323232" fill-opacity="1"><g transform="translate(105.282603, 328.220222)"><g><path d="M 4 -33.734375 L 11.8125 -33.734375 L 11.8125 -6.359375 L 28.71875 -6.359375 L 28.71875 0 L 4 0 Z M 4 -33.734375 "/></g></g></g><g fill="#323232" fill-opacity="1"><g transform="translate(131.254698, 328.220222)"><g><path d="M 13.921875 -26.3125 C 17.941406 -26.3125 21.023438 -25.351562 23.171875 -23.4375 C 25.328125 -21.53125 26.40625 -18.648438 26.40625 -14.796875 L 26.40625 0 L 19.375 0 L 19.375 -3.234375 C 17.957031 -0.816406 15.320312 0.390625 11.46875 0.390625 C 9.476562 0.390625 7.75 0.0507812 6.28125 -0.625 C 4.820312 -1.300781 3.707031 -2.234375 2.9375 -3.421875 C 2.164062 -4.609375 1.78125 -5.957031 1.78125 -7.46875 C 1.78125 -9.875 2.6875 -11.769531 4.5 -13.15625 C 6.320312 -14.539062 9.128906 -15.234375 12.921875 -15.234375 L 18.890625 -15.234375 C 18.890625 -16.867188 18.390625 -18.125 17.390625 -19 C 16.398438 -19.882812 14.910156 -20.328125 12.921875 -20.328125 C 11.535156 -20.328125 10.175781 -20.109375 8.84375 -19.671875 C 7.507812 -19.242188 6.375 -18.660156 5.4375 -17.921875 L 2.75 -23.171875 C 4.15625 -24.171875 5.847656 -24.941406 7.828125 -25.484375 C 9.804688 -26.035156 11.835938 -26.3125 13.921875 -26.3125 Z M 13.34375 -4.671875 C 14.632812 -4.671875 15.773438 -4.96875 16.765625 -5.5625 C 17.765625 -6.15625 18.472656 -7.03125 18.890625 -8.1875 L 18.890625 -10.84375 L 13.734375 -10.84375 C 10.648438 -10.84375 9.109375 -9.832031 9.109375 -7.8125 C 9.109375 -6.84375 9.484375 -6.078125 10.234375 -5.515625 C 10.992188 -4.953125 12.03125 -4.671875 13.34375 -4.671875 Z M 13.34375 -4.671875 "/></g></g></g><g fill="#323232" fill-opacity="1"><g transform="translate(157.853232, 328.220222)"><g><path d="M 29.59375 -25.921875 L 29.59375 0 L 22.453125 0 L 22.453125 -3.078125 C 21.460938 -1.953125 20.273438 -1.09375 18.890625 -0.5 C 17.503906 0.09375 16.007812 0.390625 14.40625 0.390625 C 11 0.390625 8.300781 -0.585938 6.3125 -2.546875 C 4.320312 -4.515625 3.328125 -7.425781 3.328125 -11.28125 L 3.328125 -25.921875 L 10.84375 -25.921875 L 10.84375 -12.390625 C 10.84375 -8.210938 12.59375 -6.125 16.09375 -6.125 C 17.894531 -6.125 19.335938 -6.707031 20.421875 -7.875 C 21.515625 -9.050781 22.0625 -10.796875 22.0625 -13.109375 L 22.0625 -25.921875 Z M 29.59375 -25.921875 "/></g></g></g><g fill="#323232" fill-opacity="1"><g transform="translate(187.824889, 328.220222)"><g><path d="M 10.65625 -22.5 C 11.550781 -23.757812 12.757812 -24.707031 14.28125 -25.34375 C 15.8125 -25.988281 17.570312 -26.3125 19.5625 -26.3125 L 19.5625 -19.375 C 18.726562 -19.4375 18.164062 -19.46875 17.875 -19.46875 C 15.726562 -19.46875 14.039062 -18.863281 12.8125 -17.65625 C 11.59375 -16.457031 10.984375 -14.648438 10.984375 -12.234375 L 10.984375 0 L 3.46875 0 L 3.46875 -25.921875 L 10.65625 -25.921875 Z M 10.65625 -22.5 "/></g></g></g><g fill="#323232" fill-opacity="1"><g transform="translate(205.460548, 328.220222)"><g><path d="M 28.859375 -12.859375 C 28.859375 -12.765625 28.8125 -12.09375 28.71875 -10.84375 L 9.109375 -10.84375 C 9.460938 -9.238281 10.296875 -7.96875 11.609375 -7.03125 C 12.929688 -6.101562 14.570312 -5.640625 16.53125 -5.640625 C 17.875 -5.640625 19.066406 -5.835938 20.109375 -6.234375 C 21.160156 -6.640625 22.132812 -7.273438 23.03125 -8.140625 L 27.03125 -3.8125 C 24.59375 -1.007812 21.023438 0.390625 16.328125 0.390625 C 13.410156 0.390625 10.828125 -0.175781 8.578125 -1.3125 C 6.328125 -2.457031 4.59375 -4.039062 3.375 -6.0625 C 2.15625 -8.09375 1.546875 -10.394531 1.546875 -12.96875 C 1.546875 -15.5 2.144531 -17.785156 3.34375 -19.828125 C 4.550781 -21.867188 6.207031 -23.457031 8.3125 -24.59375 C 10.414062 -25.738281 12.769531 -26.3125 15.375 -26.3125 C 17.90625 -26.3125 20.195312 -25.765625 22.25 -24.671875 C 24.3125 -23.578125 25.925781 -22.007812 27.09375 -19.96875 C 28.269531 -17.925781 28.859375 -15.554688 28.859375 -12.859375 Z M 15.421875 -20.625 C 13.710938 -20.625 12.28125 -20.140625 11.125 -19.171875 C 9.96875 -18.210938 9.265625 -16.898438 9.015625 -15.234375 L 21.78125 -15.234375 C 21.519531 -16.867188 20.8125 -18.175781 19.65625 -19.15625 C 18.5 -20.132812 17.085938 -20.625 15.421875 -20.625 Z M 15.421875 -20.625 "/></g></g></g><g fill="#323232" fill-opacity="1"><g transform="translate(232.733706, 328.220222)"><g><path d="M 3.46875 -35.75 L 10.984375 -35.75 L 10.984375 0 L 3.46875 0 Z M 3.46875 -35.75 "/></g></g></g><g fill="#323232" fill-opacity="1"><g transform="translate(244.104989, 328.220222)"><g><path d="M 12.1875 0.390625 C 10.039062 0.390625 7.9375 0.125 5.875 -0.40625 C 3.820312 -0.9375 2.1875 -1.601562 0.96875 -2.40625 L 3.46875 -7.8125 C 4.625 -7.070312 6.019531 -6.46875 7.65625 -6 C 9.300781 -5.53125 10.910156 -5.296875 12.484375 -5.296875 C 15.660156 -5.296875 17.25 -6.082031 17.25 -7.65625 C 17.25 -8.394531 16.816406 -8.925781 15.953125 -9.25 C 15.085938 -9.570312 13.753906 -9.847656 11.953125 -10.078125 C 9.828125 -10.390625 8.070312 -10.753906 6.6875 -11.171875 C 5.3125 -11.597656 4.117188 -12.335938 3.109375 -13.390625 C 2.097656 -14.453125 1.59375 -15.960938 1.59375 -17.921875 C 1.59375 -19.566406 2.066406 -21.019531 3.015625 -22.28125 C 3.960938 -23.550781 5.34375 -24.539062 7.15625 -25.25 C 8.96875 -25.957031 11.113281 -26.3125 13.59375 -26.3125 C 15.414062 -26.3125 17.234375 -26.109375 19.046875 -25.703125 C 20.867188 -25.304688 22.375 -24.753906 23.5625 -24.046875 L 21.0625 -18.703125 C 18.78125 -19.984375 16.289062 -20.625 13.59375 -20.625 C 11.976562 -20.625 10.769531 -20.398438 9.96875 -19.953125 C 9.164062 -19.503906 8.765625 -18.925781 8.765625 -18.21875 C 8.765625 -17.414062 9.195312 -16.851562 10.0625 -16.53125 C 10.9375 -16.207031 12.320312 -15.898438 14.21875 -15.609375 C 16.332031 -15.253906 18.0625 -14.875 19.40625 -14.46875 C 20.757812 -14.070312 21.9375 -13.34375 22.9375 -12.28125 C 23.9375 -11.226562 24.4375 -9.753906 24.4375 -7.859375 C 24.4375 -6.242188 23.953125 -4.8125 22.984375 -3.5625 C 22.023438 -2.3125 20.617188 -1.335938 18.765625 -0.640625 C 16.921875 0.046875 14.726562 0.390625 12.1875 0.390625 Z M 12.1875 0.390625 "/></g></g></g><g fill="#323232" fill-opacity="1"><g transform="translate(146.086701, 279.209778)"><g><path d="M 1.5625 -11.6875 L 3.734375 -11.6875 L 3.734375 -1.828125 L 9.84375 -1.828125 L 9.84375 0 L 1.5625 0 Z M 1.5625 -11.6875 "/></g></g></g><g fill="#323232" fill-opacity="1"><g transform="translate(167.884524, 279.209778)"><g><path d="M 7.03125 0.171875 C 5.832031 0.171875 4.753906 -0.0859375 3.796875 -0.609375 C 2.847656 -1.128906 2.097656 -1.847656 1.546875 -2.765625 C 1.003906 -3.679688 0.734375 -4.707031 0.734375 -5.84375 C 0.734375 -6.976562 1.003906 -8.003906 1.546875 -8.921875 C 2.097656 -9.835938 2.847656 -10.550781 3.796875 -11.0625 C 4.753906 -11.582031 5.832031 -11.84375 7.03125 -11.84375 C 8.21875 -11.84375 9.289062 -11.582031 10.25 -11.0625 C 11.207031 -10.550781 11.957031 -9.835938 12.5 -8.921875 C 13.039062 -8.015625 13.3125 -6.988281 13.3125 -5.84375 C 13.3125 -4.695312 13.039062 -3.664062 12.5 -2.75 C 11.957031 -1.84375 11.207031 -1.128906 10.25 -0.609375 C 9.289062 -0.0859375 8.21875 0.171875 7.03125 0.171875 Z M 7.03125 -1.734375 C 7.800781 -1.734375 8.5 -1.90625 9.125 -2.25 C 9.75 -2.601562 10.238281 -3.09375 10.59375 -3.71875 C 10.945312 -4.351562 11.125 -5.0625 11.125 -5.84375 C 11.125 -6.625 10.945312 -7.328125 10.59375 -7.953125 C 10.238281 -8.578125 9.75 -9.066406 9.125 -9.421875 C 8.5 -9.773438 7.800781 -9.953125 7.03125 -9.953125 C 6.25 -9.953125 5.546875 -9.773438 4.921875 -9.421875 C 4.296875 -9.066406 3.804688 -8.578125 3.453125 -7.953125 C 3.097656 -7.328125 2.921875 -6.625 2.921875 -5.84375 C 2.921875 -5.0625 3.097656 -4.351562 3.453125 -3.71875 C 3.804688 -3.09375 4.296875 -2.601562 4.921875 -2.25 C 5.546875 -1.90625 6.25 -1.734375 7.03125 -1.734375 Z M 7.03125 -1.734375 "/></g></g></g><g fill="#323232" fill-opacity="1"><g transform="translate(193.737401, 279.209778)"><g><path d="M 12.25 -11.6875 L 7.15625 0 L 5.015625 0 L -0.078125 -11.6875 L 2.265625 -11.6875 L 6.15625 -2.671875 L 10.078125 -11.6875 Z M 12.25 -11.6875 "/></g></g></g><g fill="#323232" fill-opacity="1"><g transform="translate(217.704589, 279.209778)"><g><path d="M 10.328125 -1.8125 L 10.328125 0 L 1.5625 0 L 1.5625 -11.6875 L 10.09375 -11.6875 L 10.09375 -9.859375 L 3.734375 -9.859375 L 3.734375 -6.828125 L 9.375 -6.828125 L 9.375 -5.046875 L 3.734375 -5.046875 L 3.734375 -1.8125 Z M 10.328125 -1.8125 "/></g></g></g></svg>