<svg xmlns="http://www.w3.org/2000/svg" xmlns:xlink="http://www.w3.org/1999/xlink" width="500" zoomAndPan="magnify" viewBox="0 0 375 374.999991" height="500" preserveAspectRatio="xMidYMid meet" version="1.0"><defs><g/><clipPath id="e86b9ca1e1"><path d="M 82 38 L 312 38 L 312 267 L 82 267 Z M 82 38 " clip-rule="nonzero"/></clipPath><clipPath id="4c339f421c"><path d="M 84.851562 33.6875 L 314.535156 40.222656 L 308 269.90625 L 78.316406 263.367188 Z M 84.851562 33.6875 " clip-rule="nonzero"/></clipPath><clipPath id="c3fa89857f"><path d="M 84.851562 33.6875 L 314.535156 40.222656 L 308 269.90625 L 78.316406 263.367188 Z M 84.851562 33.6875 " clip-rule="nonzero"/></clipPath><clipPath id="7a3b4dd216"><path d="M 184 168 L 203 168 L 203 181 L 184 181 Z M 184 168 " clip-rule="nonzero"/></clipPath><clipPath id="232c1a8b5e"><path d="M 84.851562 33.6875 L 314.535156 40.222656 L 308 269.90625 L 78.316406 263.367188 Z M 84.851562 33.6875 " clip-rule="nonzero"/></clipPath><clipPath id="ff0f8eaa66"><path d="M 84.851562 33.6875 L 314.535156 40.222656 L 308 269.90625 L 78.316406 263.367188 Z M 84.851562 33.6875 " clip-rule="nonzero"/></clipPath><clipPath id="5cc4849ae8"><path d="M 144 160 L 166 160 L 166 175 L 144 175 Z M 144 160 " clip-rule="nonzero"/></clipPath><clipPath id="a681c32ef3"><path d="M 84.851562 33.6875 L 314.535156 40.222656 L 308 269.90625 L 78.316406 263.367188 Z M 84.851562 33.6875 " clip-rule="nonzero"/></clipPath><clipPath id="12b7a359d5"><path d="M 84.851562 33.6875 L 314.535156 40.222656 L 308 269.90625 L 78.316406 263.367188 Z M 84.851562 33.6875 " clip-rule="nonzero"/></clipPath><clipPath id="f1ec487233"><path d="M 221 169 L 243 169 L 243 184 L 221 184 Z M 221 169 " clip-rule="nonzero"/></clipPath><clipPath id="f8810efff0"><path d="M 84.851562 33.6875 L 314.535156 40.222656 L 308 269.90625 L 78.316406 263.367188 Z M 84.851562 33.6875 " clip-rule="nonzero"/></clipPath><clipPath id="78de8ce435"><path d="M 84.851562 33.6875 L 314.535156 40.222656 L 308 269.90625 L 78.316406 263.367188 Z M 84.851562 33.6875 " clip-rule="nonzero"/></clipPath><clipPath id="319f358543"><path d="M 156 137 L 176 137 L 176 150 L 156 150 Z M 156 137 " clip-rule="nonzero"/></clipPath><clipPath id="42ae4fef36"><path d="M 84.851562 33.6875 L 314.535156 40.222656 L 308 269.90625 L 78.316406 263.367188 Z M 84.851562 33.6875 " clip-rule="nonzero"/></clipPath><clipPath id="6b5862b77e"><path d="M 84.851562 33.6875 L 314.535156 40.222656 L 308 269.90625 L 78.316406 263.367188 Z M 84.851562 33.6875 " clip-rule="nonzero"/></clipPath><clipPath id="7d7b20592b"><path d="M 154 142 L 158 142 L 158 145 L 154 145 Z M 154 142 " clip-rule="nonzero"/></clipPath><clipPath id="09f7bc84a3"><path d="M 84.851562 33.6875 L 314.535156 40.222656 L 308 269.90625 L 78.316406 263.367188 Z M 84.851562 33.6875 " clip-rule="nonzero"/></clipPath><clipPath id="1fc81c386a"><path d="M 84.851562 33.6875 L 314.535156 40.222656 L 308 269.90625 L 78.316406 263.367188 Z M 84.851562 33.6875 " clip-rule="nonzero"/></clipPath><clipPath id="44f897f0c9"><path d="M 156 138 L 161 138 L 161 142 L 156 142 Z M 156 138 " clip-rule="nonzero"/></clipPath><clipPath id="b2c76193ed"><path d="M 84.851562 33.6875 L 314.535156 40.222656 L 308 269.90625 L 78.316406 263.367188 Z M 84.851562 33.6875 " clip-rule="nonzero"/></clipPath><clipPath id="28eb718b30"><path d="M 84.851562 33.6875 L 314.535156 40.222656 L 308 269.90625 L 78.316406 263.367188 Z M 84.851562 33.6875 " clip-rule="nonzero"/></clipPath><clipPath id="54af9739c6"><path d="M 216 144 L 236 144 L 236 157 L 216 157 Z M 216 144 " clip-rule="nonzero"/></clipPath><clipPath id="da984fbde8"><path d="M 84.851562 33.6875 L 314.535156 40.222656 L 308 269.90625 L 78.316406 263.367188 Z M 84.851562 33.6875 " clip-rule="nonzero"/></clipPath><clipPath id="c1ab2388a9"><path d="M 84.851562 33.6875 L 314.535156 40.222656 L 308 269.90625 L 78.316406 263.367188 Z M 84.851562 33.6875 " clip-rule="nonzero"/></clipPath><clipPath id="80dc9fdf8e"><path d="M 234 151 L 239 151 L 239 154 L 234 154 Z M 234 151 " clip-rule="nonzero"/></clipPath><clipPath id="dc6469b897"><path d="M 84.851562 33.6875 L 314.535156 40.222656 L 308 269.90625 L 78.316406 263.367188 Z M 84.851562 33.6875 " clip-rule="nonzero"/></clipPath><clipPath id="08e782956c"><path d="M 84.851562 33.6875 L 314.535156 40.222656 L 308 269.90625 L 78.316406 263.367188 Z M 84.851562 33.6875 " clip-rule="nonzero"/></clipPath><clipPath id="32b8cc8fa0"><path d="M 233 147 L 237 147 L 237 151 L 233 151 Z M 233 147 " clip-rule="nonzero"/></clipPath><clipPath id="c6030b1cdb"><path d="M 84.851562 33.6875 L 314.535156 40.222656 L 308 269.90625 L 78.316406 263.367188 Z M 84.851562 33.6875 " clip-rule="nonzero"/></clipPath><clipPath id="1c778d249e"><path d="M 84.851562 33.6875 L 314.535156 40.222656 L 308 269.90625 L 78.316406 263.367188 Z M 84.851562 33.6875 " clip-rule="nonzero"/></clipPath><clipPath id="5df10caf25"><path d="M 192 94 L 208 94 L 208 108 L 192 108 Z M 192 94 " clip-rule="nonzero"/></clipPath><clipPath id="1588330dd2"><path d="M 128.941406 56.277344 L 246.074219 19.976562 L 273.5625 108.675781 L 156.433594 144.976562 Z M 128.941406 56.277344 " clip-rule="nonzero"/></clipPath><clipPath id="4c842351a8"><path d="M 128.941406 56.277344 L 246.074219 19.976562 L 273.5625 108.675781 L 156.433594 144.976562 Z M 128.941406 56.277344 " clip-rule="nonzero"/></clipPath><clipPath id="865896d686"><path d="M 140 46 L 196 46 L 196 112 L 140 112 Z M 140 46 " clip-rule="nonzero"/></clipPath><clipPath id="0b1187d3a7"><path d="M 128.941406 56.277344 L 246.074219 19.976562 L 273.5625 108.675781 L 156.433594 144.976562 Z M 128.941406 56.277344 " clip-rule="nonzero"/></clipPath><clipPath id="490bd12d0b"><path d="M 128.941406 56.277344 L 246.074219 19.976562 L 273.5625 108.675781 L 156.433594 144.976562 Z M 128.941406 56.277344 " clip-rule="nonzero"/></clipPath><clipPath id="50fdcc33a6"><path d="M 156 55 L 164 55 L 164 63 L 156 63 Z M 156 55 " clip-rule="nonzero"/></clipPath><clipPath id="9cc4113d35"><path d="M 128.941406 56.277344 L 246.074219 19.976562 L 273.5625 108.675781 L 156.433594 144.976562 Z M 128.941406 56.277344 " clip-rule="nonzero"/></clipPath><clipPath id="7ed19a9ad8"><path d="M 128.941406 56.277344 L 246.074219 19.976562 L 273.5625 108.675781 L 156.433594 144.976562 Z M 128.941406 56.277344 " clip-rule="nonzero"/></clipPath><clipPath id="7fa7a6c166"><path d="M 171 72 L 179 72 L 179 80 L 171 80 Z M 171 72 " clip-rule="nonzero"/></clipPath><clipPath id="5912d145d1"><path d="M 128.941406 56.277344 L 246.074219 19.976562 L 273.5625 108.675781 L 156.433594 144.976562 Z M 128.941406 56.277344 " clip-rule="nonzero"/></clipPath><clipPath id="43f8a81564"><path d="M 128.941406 56.277344 L 246.074219 19.976562 L 273.5625 108.675781 L 156.433594 144.976562 Z M 128.941406 56.277344 " clip-rule="nonzero"/></clipPath><clipPath id="d3905eae92"><path d="M 149 89 L 157 89 L 157 97 L 149 97 Z M 149 89 " clip-rule="nonzero"/></clipPath><clipPath id="e57f0af02e"><path d="M 128.941406 56.277344 L 246.074219 19.976562 L 273.5625 108.675781 L 156.433594 144.976562 Z M 128.941406 56.277344 " clip-rule="nonzero"/></clipPath><clipPath id="07738dc6e1"><path d="M 128.941406 56.277344 L 246.074219 19.976562 L 273.5625 108.675781 L 156.433594 144.976562 Z M 128.941406 56.277344 " clip-rule="nonzero"/></clipPath><clipPath id="df94a18e11"><path d="M 175 95 L 184 95 L 184 103 L 175 103 Z M 175 95 " clip-rule="nonzero"/></clipPath><clipPath id="432a85aeec"><path d="M 128.941406 56.277344 L 246.074219 19.976562 L 273.5625 108.675781 L 156.433594 144.976562 Z M 128.941406 56.277344 " clip-rule="nonzero"/></clipPath><clipPath id="51e870386e"><path d="M 128.941406 56.277344 L 246.074219 19.976562 L 273.5625 108.675781 L 156.433594 144.976562 Z M 128.941406 56.277344 " clip-rule="nonzero"/></clipPath><clipPath id="cf26f3cf0e"><path d="M 204 52 L 263 52 L 263 118 L 204 118 Z M 204 52 " clip-rule="nonzero"/></clipPath><clipPath id="4c5b00553f"><path d="M 128.941406 56.277344 L 246.074219 19.976562 L 273.5625 108.675781 L 156.433594 144.976562 Z M 128.941406 56.277344 " clip-rule="nonzero"/></clipPath><clipPath id="14c8dc9f8f"><path d="M 128.941406 56.277344 L 246.074219 19.976562 L 273.5625 108.675781 L 156.433594 144.976562 Z M 128.941406 56.277344 " clip-rule="nonzero"/></clipPath><clipPath id="dade815f8d"><path d="M 246 63 L 254 63 L 254 70 L 246 70 Z M 246 63 " clip-rule="nonzero"/></clipPath><clipPath id="28a0e00c82"><path d="M 128.941406 56.277344 L 246.074219 19.976562 L 273.5625 108.675781 L 156.433594 144.976562 Z M 128.941406 56.277344 " clip-rule="nonzero"/></clipPath><clipPath id="16d6afa3b2"><path d="M 128.941406 56.277344 L 246.074219 19.976562 L 273.5625 108.675781 L 156.433594 144.976562 Z M 128.941406 56.277344 " clip-rule="nonzero"/></clipPath><clipPath id="710846337b"><path d="M 226 76 L 234 76 L 234 84 L 226 84 Z M 226 76 " clip-rule="nonzero"/></clipPath><clipPath id="fb7d936270"><path d="M 128.941406 56.277344 L 246.074219 19.976562 L 273.5625 108.675781 L 156.433594 144.976562 Z M 128.941406 56.277344 " clip-rule="nonzero"/></clipPath><clipPath id="0e908e2af9"><path d="M 128.941406 56.277344 L 246.074219 19.976562 L 273.5625 108.675781 L 156.433594 144.976562 Z M 128.941406 56.277344 " clip-rule="nonzero"/></clipPath><clipPath id="5f2eb49b77"><path d="M 243 98 L 251 98 L 251 106 L 243 106 Z M 243 98 " clip-rule="nonzero"/></clipPath><clipPath id="ee5b149567"><path d="M 128.941406 56.277344 L 246.074219 19.976562 L 273.5625 108.675781 L 156.433594 144.976562 Z M 128.941406 56.277344 " clip-rule="nonzero"/></clipPath><clipPath id="ba086d0152"><path d="M 128.941406 56.277344 L 246.074219 19.976562 L 273.5625 108.675781 L 156.433594 144.976562 Z M 128.941406 56.277344 " clip-rule="nonzero"/></clipPath><clipPath id="6bd4efb65c"><path d="M 215 97 L 223 97 L 223 105 L 215 105 Z M 215 97 " clip-rule="nonzero"/></clipPath><clipPath id="7f239a3964"><path d="M 128.941406 56.277344 L 246.074219 19.976562 L 273.5625 108.675781 L 156.433594 144.976562 Z M 128.941406 56.277344 " clip-rule="nonzero"/></clipPath><clipPath id="ce69fdae5c"><path d="M 128.941406 56.277344 L 246.074219 19.976562 L 273.5625 108.675781 L 156.433594 144.976562 Z M 128.941406 56.277344 " clip-rule="nonzero"/></clipPath></defs><rect x="-37.5" width="450" fill="#ffffff" y="-37.499999" height="449.999989" fill-opacity="1"/><rect x="-37.5" width="450" fill="#ffffff" y="-37.499999" height="449.999989" fill-opacity="1"/><g fill="#d497ab" fill-opacity="1"><g transform="translate(84.572628, 303.632354)"><g><path d="M 9.296875 -5.171875 L 9.296875 -12.3125 C 9.296875 -15.390625 9.328125 -18.484375 9.328125 -21.5625 C 9.328125 -23.515625 8.265625 -24.578125 6.3125 -24.578125 L 5.671875 -24.578125 C 3.71875 -24.578125 2.65625 -23.515625 2.703125 -21.5625 C 2.703125 -18.484375 2.734375 -15.390625 2.734375 -12.3125 C 2.734375 -9.21875 2.703125 -6.140625 2.703125 -3.015625 C 2.65625 -1.0625 3.71875 0 5.671875 0 L 13.34375 0 C 15.28125 0 16.34375 -0.953125 16.34375 -2.734375 C 16.34375 -4.46875 15.25 -5.359375 13.265625 -5.28125 C 11.953125 -5.21875 10.609375 -5.21875 9.296875 -5.171875 Z M 9.296875 -5.171875 "/></g></g></g><g fill="#d497ab" fill-opacity="1"><g transform="translate(102.97718, 303.632354)"><g><path d="M 10.390625 0.421875 C 16.421875 0.421875 19.359375 -2.9375 19.359375 -9.75 C 19.359375 -16.53125 16.421875 -19.9375 10.390625 -19.9375 C 4.296875 -19.9375 1.28125 -16.53125 1.28125 -9.75 C 1.28125 -2.9375 4.296875 0.421875 10.390625 0.421875 Z M 10.390625 -3.90625 C 8.578125 -3.90625 7.34375 -5.03125 7.34375 -9.75 C 7.34375 -14.078125 8.15625 -15.609375 10.390625 -15.609375 C 12.453125 -15.609375 13.296875 -14.078125 13.296875 -9.75 C 13.296875 -5.03125 12.0625 -3.90625 10.390625 -3.90625 Z M 10.390625 -3.90625 "/></g></g></g><g fill="#d497ab" fill-opacity="1"><g transform="translate(124.573214, 303.632354)"><g><path d="M 10.171875 0.359375 C 14.859375 0.359375 17.703125 -2.703125 18.546875 -12.171875 C 18.96875 -16.984375 17.84375 -19.609375 16.03125 -19.609375 C 14.21875 -19.609375 13.265625 -18.4375 13.296875 -16.25 C 13.515625 -6.140625 12.515625 -4.546875 10.609375 -4.546875 C 8.796875 -4.546875 8.09375 -7.015625 7.984375 -16.34375 C 7.984375 -18.484375 6.921875 -19.609375 4.96875 -19.609375 L 4.640625 -19.609375 C 2.703125 -19.609375 1.5625 -18.484375 1.625 -16.390625 C 1.984375 -3.578125 4.75 0.359375 10.171875 0.359375 Z M 10.171875 0.359375 "/></g></g></g><g fill="#d497ab" fill-opacity="1"><g transform="translate(145.956479, 303.632354)"><g><path d="M 10.421875 0.359375 C 14.796875 0.359375 17.453125 -0.890625 18.296875 -3.515625 C 18.828125 -5.109375 17.515625 -6.09375 15.671875 -6.09375 C 14.15625 -6.09375 14.015625 -5.109375 12.65625 -4.21875 C 12.171875 -3.9375 11.421875 -3.765625 10.46875 -3.765625 C 8.625 -3.765625 7.265625 -4.640625 7.125 -8.296875 L 18.4375 -8.296875 C 18.734375 -8.296875 18.9375 -8.515625 18.96875 -8.875 C 19.65625 -15.46875 17.03125 -19.9375 10.421875 -19.9375 C 4.296875 -19.9375 1.28125 -16.640625 1.28125 -10.109375 C 1.28125 -3.125 4.078125 0.359375 10.421875 0.359375 Z M 7.171875 -11.640625 C 7.09375 -14.5 8.296875 -15.890625 10.140625 -15.890625 C 12.203125 -15.890625 13.046875 -14.46875 12.984375 -11.640625 Z M 7.171875 -11.640625 "/></g></g></g><g fill="#d497ab" fill-opacity="1"><g transform="translate(167.410664, 303.632354)"><g/></g></g><g fill="#d497ab" fill-opacity="1"><g transform="translate(177.23366, 303.632354)"><g><path d="M 9.296875 -5.171875 L 9.296875 -12.3125 C 9.296875 -15.390625 9.328125 -18.484375 9.328125 -21.5625 C 9.328125 -23.515625 8.265625 -24.578125 6.3125 -24.578125 L 5.671875 -24.578125 C 3.71875 -24.578125 2.65625 -23.515625 2.703125 -21.5625 C 2.703125 -18.484375 2.734375 -15.390625 2.734375 -12.3125 C 2.734375 -9.21875 2.703125 -6.140625 2.703125 -3.015625 C 2.65625 -1.0625 3.71875 0 5.671875 0 L 13.34375 0 C 15.28125 0 16.34375 -0.953125 16.34375 -2.734375 C 16.34375 -4.46875 15.25 -5.359375 13.265625 -5.28125 C 11.953125 -5.21875 10.609375 -5.21875 9.296875 -5.171875 Z M 9.296875 -5.171875 "/></g></g></g><g fill="#d497ab" fill-opacity="1"><g transform="translate(195.638207, 303.632354)"><g><path d="M 7.40625 0.359375 C 9.40625 0.359375 11.3125 -0.3125 12.734375 -1.703125 C 12.765625 -1.421875 12.796875 -1.140625 12.90625 -0.84375 C 13.046875 -0.28125 14.015625 0 15.8125 0 L 16.140625 0 C 18.046875 0 19.046875 -1.09375 18.9375 -3.078125 C 18.828125 -5.5 18.828125 -8.578125 18.828125 -12.84375 C 18.828125 -17.59375 16.203125 -19.9375 10.921875 -19.9375 C 5.75 -19.9375 3.015625 -18.546875 2.203125 -15.78125 C 1.625 -13.828125 3.078125 -12.703125 5.078125 -12.703125 L 5.421875 -12.703125 C 7.171875 -12.703125 7.3125 -13.65625 8.328125 -15.21875 C 8.765625 -15.859375 9.546875 -16.109375 10.46875 -16.109375 C 12.03125 -16.109375 12.734375 -15.328125 12.734375 -12.734375 L 12.734375 -11.53125 C 4.75 -11.734375 1.09375 -9.4375 1.09375 -5 C 1.09375 -1.28125 3.90625 0.359375 7.40625 0.359375 Z M 9.296875 -3.65625 C 7.625 -3.65625 6.734375 -4.609375 6.734375 -5.953125 C 6.734375 -8.234375 9.578125 -8.625 12.796875 -8.6875 L 12.796875 -5.5 C 11.984375 -4.328125 10.890625 -3.65625 9.296875 -3.65625 Z M 9.296875 -3.65625 "/></g></g></g><g fill="#d497ab" fill-opacity="1"><g transform="translate(217.234237, 303.632354)"><g><path d="M 16.453125 -19.609375 L 16.25 -19.609375 C 14.296875 -19.609375 13.234375 -18.546875 13.265625 -16.59375 C 13.296875 -14.078125 13.34375 -11.640625 13.265625 -9.078125 C 13.265625 -6.171875 12.125 -4.71875 10.5 -4.6875 C 9.078125 -4.640625 8.234375 -5.78125 8.234375 -8.046875 C 8.234375 -10.953125 8.265625 -13.71875 8.296875 -16.59375 C 8.296875 -18.546875 7.234375 -19.609375 5.28125 -19.609375 L 5.078125 -19.609375 C 3.125 -19.609375 2.0625 -18.546875 2.0625 -16.59375 C 2.09375 -13.34375 2.15625 -10.21875 2.09375 -6.921875 C 1.984375 -1.53125 4.328125 0.390625 7.796875 0.390625 C 10.609375 0.390625 12.625 -0.953125 13.71875 -3.265625 C 13.796875 -2.703125 13.90625 -2.15625 14.046875 -1.59375 C 14.359375 -0.5 15.390625 0 17.03125 0 C 18.578125 0 19.46875 -1.0625 19.4375 -3.015625 C 19.4375 -5.03125 19.40625 -7.015625 19.40625 -9.078125 C 19.40625 -11.640625 19.4375 -14.078125 19.46875 -16.59375 C 19.46875 -18.546875 18.40625 -19.609375 16.453125 -19.609375 Z M 16.453125 -19.609375 "/></g></g></g><g fill="#d497ab" fill-opacity="1"><g transform="translate(239.716783, 303.632354)"><g><path d="M 13.34375 -19.890625 C 13.125 -19.9375 12.84375 -19.96875 12.453125 -19.96875 C 10.109375 -19.96875 8.484375 -17.90625 7.90625 -15 L 7.796875 -15.078125 L 7.796875 -17.375 C 7.796875 -18.875 6.78125 -19.65625 4.9375 -19.65625 C 3.078125 -19.65625 2.0625 -18.578125 2.0625 -16.640625 C 2.09375 -14.359375 2.125 -12.171875 2.125 -9.828125 C 2.125 -7.484375 2.09375 -5.28125 2.0625 -3.015625 C 2.0625 -1.0625 3.125 0 5.078125 0 L 5.171875 0 C 7.171875 0 8.1875 -1.09375 8.125 -3.078125 C 8.09375 -4.578125 8.046875 -6.03125 8.046875 -7.484375 C 8.046875 -8.234375 8.09375 -9.046875 8.09375 -9.828125 L 8.09375 -10.671875 C 8.71875 -12.59375 9.828125 -13.625 11.390625 -13.625 C 11.921875 -13.625 12.34375 -13.546875 12.796875 -13.40625 C 13.6875 -13.09375 14.796875 -13.578125 15.25 -15.421875 C 15.46875 -16.25 15.5 -17.09375 15.25 -17.90625 C 14.796875 -19.296875 13.96875 -19.75 13.34375 -19.890625 Z M 13.34375 -19.890625 "/></g></g></g><g fill="#d497ab" fill-opacity="1"><g transform="translate(256.135517, 303.632354)"><g><path d="M 10.421875 0.359375 C 14.796875 0.359375 17.453125 -0.890625 18.296875 -3.515625 C 18.828125 -5.109375 17.515625 -6.09375 15.671875 -6.09375 C 14.15625 -6.09375 14.015625 -5.109375 12.65625 -4.21875 C 12.171875 -3.9375 11.421875 -3.765625 10.46875 -3.765625 C 8.625 -3.765625 7.265625 -4.640625 7.125 -8.296875 L 18.4375 -8.296875 C 18.734375 -8.296875 18.9375 -8.515625 18.96875 -8.875 C 19.65625 -15.46875 17.03125 -19.9375 10.421875 -19.9375 C 4.296875 -19.9375 1.28125 -16.640625 1.28125 -10.109375 C 1.28125 -3.125 4.078125 0.359375 10.421875 0.359375 Z M 7.171875 -11.640625 C 7.09375 -14.5 8.296875 -15.890625 10.140625 -15.890625 C 12.203125 -15.890625 13.046875 -14.46875 12.984375 -11.640625 Z M 7.171875 -11.640625 "/></g></g></g><g fill="#d497ab" fill-opacity="1"><g transform="translate(277.589698, 303.632354)"><g><path d="M 4.859375 0 L 5.078125 0 C 7.015625 0 8.09375 -1.0625 8.09375 -3.015625 C 8.046875 -6.453125 8.015625 -9.71875 8.046875 -13.234375 C 8.09375 -16.34375 8.09375 -19.546875 8.09375 -22.671875 C 8.09375 -24.609375 7.015625 -25.671875 5.078125 -25.671875 L 4.859375 -25.671875 C 2.90625 -25.671875 1.84375 -24.609375 1.84375 -22.671875 C 1.875 -19.546875 1.953125 -16.34375 1.953125 -13.234375 C 1.953125 -9.71875 1.875 -6.453125 1.84375 -3.015625 C 1.84375 -1.0625 2.90625 0 4.859375 0 Z M 4.859375 0 "/></g></g></g><g fill="#d497ab" fill-opacity="1"><g transform="translate(288.511984, 303.632354)"><g><path d="M 9.4375 0.421875 C 15.109375 0.421875 18.09375 -1.78125 18.09375 -6.140625 C 18.09375 -13.96875 7.375 -9.796875 7.375 -14.109375 C 7.375 -15.21875 7.9375 -15.859375 9.859375 -15.859375 C 10.890625 -15.859375 11.5625 -15.671875 11.953125 -15.28125 C 13.015625 -14.078125 13.1875 -13.1875 14.859375 -13.1875 L 15 -13.1875 C 16.671875 -13.1875 17.953125 -14.296875 17.375 -16.203125 C 16.59375 -18.6875 14.109375 -19.9375 9.859375 -19.9375 C 4.296875 -19.9375 1.53125 -17.953125 1.53125 -13.90625 C 1.53125 -5.5625 12.203125 -9.9375 12.203125 -5.359375 C 12.203125 -4.296875 11.421875 -3.515625 9.1875 -3.515625 C 8.015625 -3.515625 7.34375 -3.6875 6.984375 -4.15625 C 5.953125 -5.5 5.8125 -6.421875 4.109375 -6.421875 L 4.015625 -6.421875 C 2.34375 -6.421875 1.03125 -5.28125 1.671875 -3.328125 C 2.453125 -0.84375 4.859375 0.421875 9.4375 0.421875 Z M 9.4375 0.421875 "/></g></g></g><g clip-path="url(#e86b9ca1e1)"><g clip-path="url(#4c339f421c)"><g clip-path="url(#c3fa89857f)"><path fill="#e4cbd1" d="M 259.179688 249.640625 C 258.902344 233.0625 257.664062 216.5 255.476562 200.0625 C 254.976562 196.296875 254.460938 192.28125 256.085938 188.84375 C 257.554688 185.742188 260.519531 183.664062 263.355469 181.726562 C 275.503906 173.445312 287.652344 165.160156 299.800781 156.878906 C 304.976562 153.34375 310.65625 149.007812 311.238281 142.765625 C 311.316406 141.941406 311.261719 141.125 311.152344 140.324219 C 310.558594 135.980469 307.445312 132.058594 303.621094 129.726562 C 299.085938 126.96875 293.722656 125.996094 288.5 125.074219 C 279.085938 123.410156 269.675781 121.75 260.265625 120.089844 C 252.898438 118.789062 245.210938 117.351562 239.304688 112.761719 C 230.761719 106.121094 228.007812 94.660156 225.226562 84.203125 C 222.199219 72.832031 218.519531 61.628906 214.207031 50.679688 C 211.796875 44.5625 206.808594 37.296875 200.519531 39.210938 C 199.007812 39.671875 197.765625 40.613281 196.6875 41.769531 C 195.574219 42.964844 194.636719 44.390625 193.765625 45.769531 C 184.890625 59.804688 176.019531 73.839844 167.144531 87.875 C 163.136719 94.207031 162.59375 100.964844 155.375 102.992188 C 141.996094 106.757812 125.457031 108.074219 111.585938 107.230469 C 106.125 106.902344 100.574219 106.214844 95.234375 107.398438 C 89.894531 108.585938 84.660156 112.132812 83.300781 117.433594 C 82.347656 121.148438 83.417969 125.085938 84.921875 128.613281 C 93.101562 147.84375 112.839844 159.242188 125.78125 175.652344 C 126.605469 176.695312 127.417969 177.800781 127.71875 179.09375 C 128.09375 180.726562 127.601562 182.421875 127.113281 184.023438 C 121.515625 202.4375 116.339844 220.980469 111.589844 239.628906 C 110.71875 243.054688 110.078125 247.265625 112.714844 249.621094 C 114.246094 250.988281 116.449219 251.253906 118.5 251.292969 C 131.375 251.539062 143.382812 245.449219 155.148438 240.222656 C 166.914062 234.992188 180.023438 230.425781 192.445312 233.808594 C 201.027344 236.148438 208.128906 242 215.203125 247.390625 C 222.101562 252.648438 229.226562 257.601562 236.554688 262.238281 C 241.714844 265.503906 248.351562 268.648438 253.605469 265.53125 C 258.675781 262.523438 259.28125 255.539062 259.183594 249.640625 Z M 259.179688 249.640625 " fill-opacity="1" fill-rule="nonzero"/></g></g></g><g clip-path="url(#7a3b4dd216)"><g clip-path="url(#232c1a8b5e)"><g clip-path="url(#ff0f8eaa66)"><path fill="#000000" d="M 184.546875 168.949219 C 183.015625 174.03125 186.589844 179.855469 192.292969 180.480469 C 198.171875 181.125 203.011719 175.925781 202.945312 170.519531 C 202.929688 169.054688 200.542969 168.761719 200.5625 170.246094 C 200.605469 174.074219 197.882812 177.890625 193.667969 178.1875 C 189.175781 178.503906 185.550781 173.894531 186.777344 169.820312 C 187.203125 168.410156 184.976562 167.527344 184.546875 168.949219 Z M 184.546875 168.949219 " fill-opacity="1" fill-rule="nonzero"/></g></g></g><g clip-path="url(#5cc4849ae8)"><g clip-path="url(#a681c32ef3)"><g clip-path="url(#12b7a359d5)"><path fill="#e2b0be" d="M 153.664062 160.640625 C 156.386719 160.765625 159.441406 161.367188 161.644531 162.667969 C 163.082031 163.363281 164.148438 164.542969 164.875 165.816406 C 166.710938 169.050781 165.324219 173.605469 160.480469 174.304688 C 159.726562 174.414062 157.992188 174.65625 157.210938 174.609375 C 155.5 174.71875 153.933594 174.511719 152.3125 174.058594 C 148.710938 173.058594 144.09375 170.222656 144.421875 166.921875 C 144.917969 162.996094 148.828125 160.417969 153.664062 160.640625 Z M 153.664062 160.640625 " fill-opacity="1" fill-rule="nonzero"/></g></g></g><g clip-path="url(#f1ec487233)"><g clip-path="url(#f8810efff0)"><g clip-path="url(#78de8ce435)"><path fill="#e2b0be" d="M 234.789062 169.988281 C 232.109375 169.488281 228.996094 169.382812 226.558594 170.144531 C 225 170.496094 223.691406 171.402344 222.695312 172.480469 C 220.171875 175.210938 220.488281 179.957031 225.042969 181.742188 C 225.753906 182.019531 227.386719 182.648438 228.160156 182.78125 C 229.800781 183.277344 231.371094 183.433594 233.054688 183.363281 C 236.789062 183.203125 241.929688 181.492188 242.359375 178.203125 C 242.773438 174.269531 239.546875 170.871094 234.789062 169.988281 Z M 234.789062 169.988281 " fill-opacity="1" fill-rule="nonzero"/></g></g></g><g clip-path="url(#319f358543)"><g clip-path="url(#42ae4fef36)"><g clip-path="url(#6b5862b77e)"><path fill="#000000" d="M 174.636719 149.265625 C 176.546875 144.363281 173.316406 138.359375 167.769531 137.398438 C 161.976562 136.394531 156.90625 141.207031 156.542969 146.542969 C 156.445312 148.003906 158.804688 148.285156 158.90625 146.816406 C 159.15625 143.085938 162.25 139.433594 166.414062 139.574219 C 170.914062 139.730469 173.972656 144.441406 172.429688 148.402344 C 171.894531 149.773438 174.101562 150.640625 174.636719 149.265625 Z M 174.636719 149.265625 " fill-opacity="1" fill-rule="nonzero"/></g></g></g><g clip-path="url(#7d7b20592b)"><g clip-path="url(#09f7bc84a3)"><g clip-path="url(#1fc81c386a)"><path fill="#000000" d="M 154.292969 142.964844 C 154.742188 144.03125 155.769531 144.769531 156.929688 144.828125 C 157.667969 144.867188 157.804688 143.722656 157.0625 143.683594 C 156.289062 143.644531 155.648438 143.214844 155.347656 142.503906 C 155.058594 141.820312 154.003906 142.28125 154.292969 142.964844 Z M 154.292969 142.964844 " fill-opacity="1" fill-rule="nonzero"/></g></g></g><g clip-path="url(#44f897f0c9)"><g clip-path="url(#b2c76193ed)"><g clip-path="url(#28eb718b30)"><path fill="#000000" d="M 156.550781 139.507812 C 157.023438 140.707031 158.117188 141.53125 159.386719 141.6875 C 160.125 141.777344 160.257812 140.632812 159.519531 140.539062 C 158.636719 140.433594 157.933594 139.871094 157.605469 139.046875 C 157.335938 138.355469 156.28125 138.820312 156.550781 139.507812 Z M 156.550781 139.507812 " fill-opacity="1" fill-rule="nonzero"/></g></g></g><g clip-path="url(#54af9739c6)"><g clip-path="url(#da984fbde8)"><g clip-path="url(#c1ab2388a9)"><path fill="#000000" d="M 216.953125 154.140625 C 216.207031 148.933594 220.71875 143.816406 226.335938 144.144531 C 232.207031 144.488281 236.050781 150.324219 235.191406 155.605469 C 234.953125 157.050781 232.59375 156.785156 232.828125 155.332031 C 233.433594 151.644531 231.25 147.382812 227.164062 146.574219 C 222.746094 145.699219 218.695312 149.59375 219.300781 153.800781 C 219.507812 155.257812 217.164062 155.601562 216.953125 154.140625 Z M 216.953125 154.140625 " fill-opacity="1" fill-rule="nonzero"/></g></g></g><g clip-path="url(#80dc9fdf8e)"><g clip-path="url(#dc6469b897)"><g clip-path="url(#08e782956c)"><path fill="#000000" d="M 238.199219 152.632812 C 237.515625 153.566406 236.347656 154.054688 235.207031 153.847656 C 234.480469 153.714844 234.605469 152.570312 235.335938 152.703125 C 236.097656 152.839844 236.820312 152.566406 237.273438 151.941406 C 237.710938 151.339844 238.636719 152.03125 238.199219 152.632812 Z M 238.199219 152.632812 " fill-opacity="1" fill-rule="nonzero"/></g></g></g><g clip-path="url(#32b8cc8fa0)"><g clip-path="url(#c6030b1cdb)"><g clip-path="url(#1c778d249e)"><path fill="#000000" d="M 236.78125 148.753906 C 236.050781 149.808594 234.800781 150.363281 233.527344 150.226562 C 232.789062 150.148438 232.921875 149.003906 233.65625 149.082031 C 234.542969 149.175781 235.355469 148.789062 235.859375 148.058594 C 236.28125 147.449219 237.203125 148.140625 236.78125 148.753906 Z M 236.78125 148.753906 " fill-opacity="1" fill-rule="nonzero"/></g></g></g><g clip-path="url(#5df10caf25)"><g clip-path="url(#1588330dd2)"><g clip-path="url(#4c842351a8)"><path fill="#d497ab" d="M 199.78125 94.570312 C 197.148438 94.125 194.101562 95.675781 192.765625 98.261719 C 191.429688 100.847656 191.949219 104.152344 193.953125 105.835938 C 195.527344 107.160156 197.746094 107.457031 199.882812 107.355469 C 202.46875 107.226562 205.40625 106.339844 206.847656 103.96875 C 208.503906 101.25 207.289062 97.648438 204.851562 96.148438 C 202.417969 94.652344 202.582031 95.046875 199.78125 94.570312 Z M 199.78125 94.570312 " fill-opacity="1" fill-rule="nonzero"/></g></g></g><g clip-path="url(#865896d686)"><g clip-path="url(#0b1187d3a7)"><g clip-path="url(#490bd12d0b)"><path fill="#d497ab" d="M 195.578125 96.953125 C 196.164062 82.886719 191.863281 68.777344 183.546875 57.480469 C 178.78125 51.007812 171.390625 45.019531 163.234375 46.445312 C 157.417969 47.460938 152.859375 52.03125 149.578125 56.875 C 142.648438 67.097656 139.539062 79.679688 140.976562 91.6875 C 141.640625 97.253906 143.445312 103 147.765625 106.621094 C 152.515625 110.601562 159.296875 111.238281 165.625 111.359375 C 171.292969 111.472656 177.078125 111.292969 182.480469 109.488281 C 187.886719 107.683594 192.917969 104.023438 195.128906 98.878906 Z M 195.578125 96.953125 " fill-opacity="1" fill-rule="nonzero"/></g></g></g><g clip-path="url(#50fdcc33a6)"><g clip-path="url(#9cc4113d35)"><g clip-path="url(#7ed19a9ad8)"><path fill="#ffffff" d="M 161.570312 55.707031 C 161.507812 55.675781 161.441406 55.644531 161.378906 55.613281 C 157.347656 53.65625 154.082031 59.839844 158.121094 61.796875 C 158.1875 61.828125 158.25 61.859375 158.316406 61.890625 C 162.34375 63.84375 165.609375 57.660156 161.570312 55.707031 C 161.507812 55.675781 161.441406 55.640625 161.378906 55.613281 C 157.347656 53.65625 154.082031 59.839844 158.121094 61.796875 C 158.183594 61.828125 158.25 61.859375 158.316406 61.890625 C 162.34375 63.84375 165.609375 57.660156 161.570312 55.707031 Z M 161.570312 55.707031 " fill-opacity="1" fill-rule="nonzero"/></g></g></g><g clip-path="url(#7fa7a6c166)"><g clip-path="url(#5912d145d1)"><g clip-path="url(#43f8a81564)"><path fill="#ffffff" d="M 173.660156 79.035156 C 177.691406 80.988281 180.957031 74.804688 176.917969 72.847656 C 172.886719 70.894531 169.625 77.078125 173.660156 79.035156 Z M 173.660156 79.035156 " fill-opacity="1" fill-rule="nonzero"/></g></g></g><g clip-path="url(#d3905eae92)"><g clip-path="url(#e57f0af02e)"><g clip-path="url(#07738dc6e1)"><path fill="#ffffff" d="M 151.125 96.453125 C 155.15625 98.40625 158.417969 92.222656 154.382812 90.265625 C 150.351562 88.3125 147.089844 94.496094 151.125 96.453125 Z M 151.125 96.453125 " fill-opacity="1" fill-rule="nonzero"/></g></g></g><g clip-path="url(#df94a18e11)"><g clip-path="url(#432a85aeec)"><g clip-path="url(#51e870386e)"><path fill="#ffffff" d="M 176.515625 97.503906 C 176.464844 97.605469 176.410156 97.707031 176.355469 97.8125 C 175.9375 98.605469 175.847656 99.605469 176.121094 100.441406 C 176.382812 101.242188 177.058594 102.078125 177.859375 102.421875 C 178.6875 102.777344 179.664062 102.921875 180.550781 102.589844 C 181.429688 102.257812 182.175781 101.683594 182.617188 100.847656 C 182.671875 100.742188 182.726562 100.640625 182.78125 100.535156 C 183.199219 99.742188 183.289062 98.742188 183.015625 97.90625 C 182.753906 97.105469 182.074219 96.269531 181.277344 95.925781 C 180.449219 95.570312 179.46875 95.425781 178.585938 95.757812 C 177.703125 96.089844 176.957031 96.664062 176.515625 97.503906 Z M 176.515625 97.503906 " fill-opacity="1" fill-rule="nonzero"/></g></g></g><g clip-path="url(#cf26f3cf0e)"><g clip-path="url(#4c5b00553f)"><g clip-path="url(#14c8dc9f8f)"><path fill="#d497ab" d="M 204.238281 95.394531 C 207.648438 81.648438 215.800781 68.96875 227.042969 59.914062 C 233.484375 54.726562 242.328125 50.597656 249.820312 53.8125 C 255.15625 56.105469 258.277344 61.558594 260.082031 66.984375 C 263.894531 78.4375 263.34375 91.308594 258.558594 102.609375 C 256.34375 107.84375 252.96875 112.996094 247.769531 115.523438 C 242.046875 118.304688 235.304688 117.394531 229.144531 116.085938 C 223.628906 114.914062 218.082031 113.441406 213.363281 110.476562 C 208.644531 107.511719 204.808594 102.835938 204.125 97.359375 L 204.238281 95.390625 Z M 204.238281 95.394531 " fill-opacity="1" fill-rule="nonzero"/></g></g></g><g clip-path="url(#dade815f8d)"><g clip-path="url(#28a0e00c82)"><g clip-path="url(#16d6afa3b2)"><path fill="#ffffff" d="M 248.808594 63.148438 C 248.878906 63.132812 248.949219 63.117188 249.023438 63.101562 C 253.472656 62.121094 254.882812 68.835938 250.425781 69.820312 C 250.351562 69.835938 250.28125 69.851562 250.210938 69.867188 C 245.757812 70.851562 244.347656 64.132812 248.808594 63.148438 C 248.878906 63.132812 248.949219 63.117188 249.023438 63.101562 C 253.472656 62.121094 254.882812 68.835938 250.425781 69.820312 C 250.351562 69.835938 250.28125 69.851562 250.210938 69.867188 C 245.757812 70.851562 244.347656 64.132812 248.808594 63.148438 Z M 248.808594 63.148438 " fill-opacity="1" fill-rule="nonzero"/></g></g></g><g clip-path="url(#710846337b)"><g clip-path="url(#fb7d936270)"><g clip-path="url(#0e908e2af9)"><path fill="#ffffff" d="M 230.511719 82.996094 C 226.058594 83.980469 224.648438 77.261719 229.109375 76.277344 C 233.5625 75.296875 234.972656 82.011719 230.511719 82.996094 Z M 230.511719 82.996094 " fill-opacity="1" fill-rule="nonzero"/></g></g></g><g clip-path="url(#5f2eb49b77)"><g clip-path="url(#ee5b149567)"><g clip-path="url(#ba086d0152)"><path fill="#ffffff" d="M 247.390625 104.929688 C 242.941406 105.914062 241.53125 99.195312 245.988281 98.210938 C 250.441406 97.230469 251.851562 103.949219 247.390625 104.929688 Z M 247.390625 104.929688 " fill-opacity="1" fill-rule="nonzero"/></g></g></g><g clip-path="url(#6bd4efb65c)"><g clip-path="url(#7f239a3964)"><g clip-path="url(#ce69fdae5c)"><path fill="#ffffff" d="M 222.527344 100.222656 C 222.550781 100.332031 222.574219 100.445312 222.597656 100.558594 C 222.777344 101.417969 222.578125 102.410156 222.078125 103.15625 C 221.597656 103.871094 220.707031 104.527344 219.835938 104.679688 C 218.933594 104.839844 217.945312 104.757812 217.183594 104.234375 C 216.425781 103.714844 215.867188 102.992188 215.675781 102.082031 C 215.652344 101.96875 215.628906 101.859375 215.605469 101.746094 C 215.425781 100.886719 215.625 99.894531 216.125 99.148438 C 216.601562 98.433594 217.496094 97.777344 218.363281 97.625 C 219.269531 97.464844 220.253906 97.546875 221.015625 98.070312 C 221.773438 98.589844 222.335938 99.3125 222.527344 100.222656 Z M 222.527344 100.222656 " fill-opacity="1" fill-rule="nonzero"/></g></g></g><g fill="#000000" fill-opacity="1"><g transform="translate(92.678699, 327.544402)"><g><path d="M 6.921875 -4.15625 L 8.046875 -4.15625 L 8.046875 -0.953125 C 7.640625 -0.617188 7.164062 -0.359375 6.625 -0.171875 C 6.082031 0.00390625 5.519531 0.09375 4.9375 0.09375 C 4.113281 0.09375 3.367188 -0.0859375 2.703125 -0.453125 C 2.035156 -0.816406 1.507812 -1.316406 1.125 -1.953125 C 0.75 -2.585938 0.5625 -3.304688 0.5625 -4.109375 C 0.5625 -4.898438 0.75 -5.617188 1.125 -6.265625 C 1.507812 -6.910156 2.035156 -7.410156 2.703125 -7.765625 C 3.367188 -8.128906 4.125 -8.3125 4.96875 -8.3125 C 5.625 -8.3125 6.21875 -8.203125 6.75 -7.984375 C 7.289062 -7.765625 7.75 -7.453125 8.125 -7.046875 L 7.390625 -6.3125 C 6.734375 -6.945312 5.941406 -7.265625 5.015625 -7.265625 C 4.390625 -7.265625 3.828125 -7.128906 3.328125 -6.859375 C 2.828125 -6.585938 2.4375 -6.210938 2.15625 -5.734375 C 1.875 -5.253906 1.734375 -4.710938 1.734375 -4.109375 C 1.734375 -3.515625 1.875 -2.972656 2.15625 -2.484375 C 2.4375 -2.003906 2.828125 -1.628906 3.328125 -1.359375 C 3.828125 -1.085938 4.382812 -0.953125 5 -0.953125 C 5.738281 -0.953125 6.378906 -1.128906 6.921875 -1.484375 Z M 6.921875 -4.15625 "/></g></g></g><g fill="#000000" fill-opacity="1"><g transform="translate(105.246599, 327.544402)"><g><path d="M 3.328125 -6.28125 C 4.191406 -6.28125 4.851562 -6.066406 5.3125 -5.640625 C 5.769531 -5.222656 6 -4.59375 6 -3.75 L 6 0 L 4.921875 0 L 4.921875 -0.828125 C 4.734375 -0.535156 4.46875 -0.3125 4.125 -0.15625 C 3.78125 0 3.367188 0.078125 2.890625 0.078125 C 2.191406 0.078125 1.632812 -0.0859375 1.21875 -0.421875 C 0.800781 -0.765625 0.59375 -1.210938 0.59375 -1.765625 C 0.59375 -2.304688 0.789062 -2.742188 1.1875 -3.078125 C 1.582031 -3.410156 2.21875 -3.578125 3.09375 -3.578125 L 4.875 -3.578125 L 4.875 -3.796875 C 4.875 -4.285156 4.734375 -4.65625 4.453125 -4.90625 C 4.171875 -5.164062 3.753906 -5.296875 3.203125 -5.296875 C 2.835938 -5.296875 2.476562 -5.234375 2.125 -5.109375 C 1.769531 -4.992188 1.472656 -4.835938 1.234375 -4.640625 L 0.765625 -5.484375 C 1.085938 -5.742188 1.46875 -5.941406 1.90625 -6.078125 C 2.351562 -6.210938 2.828125 -6.28125 3.328125 -6.28125 Z M 3.078125 -0.796875 C 3.503906 -0.796875 3.875 -0.890625 4.1875 -1.078125 C 4.5 -1.273438 4.726562 -1.550781 4.875 -1.90625 L 4.875 -2.765625 L 3.140625 -2.765625 C 2.179688 -2.765625 1.703125 -2.445312 1.703125 -1.8125 C 1.703125 -1.5 1.820312 -1.25 2.0625 -1.0625 C 2.300781 -0.882812 2.640625 -0.796875 3.078125 -0.796875 Z M 3.078125 -0.796875 "/></g></g></g><g fill="#000000" fill-opacity="1"><g transform="translate(115.775436, 327.544402)"><g><path d="M 8.84375 -6.28125 C 9.625 -6.28125 10.242188 -6.050781 10.703125 -5.59375 C 11.160156 -5.144531 11.390625 -4.472656 11.390625 -3.578125 L 11.390625 0 L 10.265625 0 L 10.265625 -3.453125 C 10.265625 -4.054688 10.125 -4.507812 9.84375 -4.8125 C 9.570312 -5.113281 9.175781 -5.265625 8.65625 -5.265625 C 8.082031 -5.265625 7.628906 -5.085938 7.296875 -4.734375 C 6.960938 -4.378906 6.796875 -3.867188 6.796875 -3.203125 L 6.796875 0 L 5.671875 0 L 5.671875 -3.453125 C 5.671875 -4.054688 5.53125 -4.507812 5.25 -4.8125 C 4.96875 -5.113281 4.570312 -5.265625 4.0625 -5.265625 C 3.488281 -5.265625 3.03125 -5.085938 2.6875 -4.734375 C 2.351562 -4.378906 2.1875 -3.867188 2.1875 -3.203125 L 2.1875 0 L 1.0625 0 L 1.0625 -6.21875 L 2.140625 -6.21875 L 2.140625 -5.296875 C 2.367188 -5.609375 2.664062 -5.847656 3.03125 -6.015625 C 3.40625 -6.191406 3.828125 -6.28125 4.296875 -6.28125 C 4.773438 -6.28125 5.203125 -6.179688 5.578125 -5.984375 C 5.960938 -5.785156 6.253906 -5.5 6.453125 -5.125 C 6.691406 -5.488281 7.019531 -5.769531 7.4375 -5.96875 C 7.851562 -6.175781 8.320312 -6.28125 8.84375 -6.28125 Z M 8.84375 -6.28125 "/></g></g></g><g fill="#000000" fill-opacity="1"><g transform="translate(131.683177, 327.544402)"><g><path d="M 6.6875 -3.078125 C 6.6875 -2.992188 6.679688 -2.878906 6.671875 -2.734375 L 1.625 -2.734375 C 1.6875 -2.179688 1.921875 -1.738281 2.328125 -1.40625 C 2.742188 -1.082031 3.257812 -0.921875 3.875 -0.921875 C 4.613281 -0.921875 5.210938 -1.171875 5.671875 -1.671875 L 6.296875 -0.9375 C 6.015625 -0.613281 5.660156 -0.363281 5.234375 -0.1875 C 4.816406 -0.0078125 4.351562 0.078125 3.84375 0.078125 C 3.175781 0.078125 2.585938 -0.0546875 2.078125 -0.328125 C 1.578125 -0.597656 1.1875 -0.972656 0.90625 -1.453125 C 0.632812 -1.941406 0.5 -2.492188 0.5 -3.109375 C 0.5 -3.710938 0.628906 -4.253906 0.890625 -4.734375 C 1.160156 -5.222656 1.53125 -5.601562 2 -5.875 C 2.476562 -6.144531 3.015625 -6.28125 3.609375 -6.28125 C 4.203125 -6.28125 4.734375 -6.144531 5.203125 -5.875 C 5.671875 -5.601562 6.035156 -5.222656 6.296875 -4.734375 C 6.554688 -4.253906 6.6875 -3.703125 6.6875 -3.078125 Z M 3.609375 -5.328125 C 3.066406 -5.328125 2.613281 -5.160156 2.25 -4.828125 C 1.894531 -4.503906 1.6875 -4.078125 1.625 -3.546875 L 5.609375 -3.546875 C 5.546875 -4.066406 5.332031 -4.492188 4.96875 -4.828125 C 4.601562 -5.160156 4.148438 -5.328125 3.609375 -5.328125 Z M 3.609375 -5.328125 "/></g></g></g><g fill="#000000" fill-opacity="1"><g transform="translate(142.376078, 327.544402)"><g><path d="M 2.84375 0.078125 C 2.34375 0.078125 1.859375 0.0078125 1.390625 -0.125 C 0.921875 -0.269531 0.550781 -0.445312 0.28125 -0.65625 L 0.75 -1.546875 C 1.019531 -1.347656 1.347656 -1.191406 1.734375 -1.078125 C 2.128906 -0.960938 2.53125 -0.90625 2.9375 -0.90625 C 3.914062 -0.90625 4.40625 -1.1875 4.40625 -1.75 C 4.40625 -1.9375 4.335938 -2.082031 4.203125 -2.1875 C 4.078125 -2.300781 3.914062 -2.382812 3.71875 -2.4375 C 3.519531 -2.488281 3.234375 -2.546875 2.859375 -2.609375 C 2.359375 -2.679688 1.945312 -2.769531 1.625 -2.875 C 1.3125 -2.976562 1.039062 -3.148438 0.8125 -3.390625 C 0.59375 -3.628906 0.484375 -3.96875 0.484375 -4.40625 C 0.484375 -4.96875 0.71875 -5.421875 1.1875 -5.765625 C 1.65625 -6.109375 2.285156 -6.28125 3.078125 -6.28125 C 3.492188 -6.28125 3.90625 -6.226562 4.3125 -6.125 C 4.726562 -6.019531 5.070312 -5.882812 5.34375 -5.71875 L 4.859375 -4.828125 C 4.347656 -5.148438 3.75 -5.3125 3.0625 -5.3125 C 2.582031 -5.3125 2.21875 -5.234375 1.96875 -5.078125 C 1.71875 -4.921875 1.59375 -4.710938 1.59375 -4.453125 C 1.59375 -4.253906 1.660156 -4.09375 1.796875 -3.96875 C 1.941406 -3.851562 2.117188 -3.769531 2.328125 -3.71875 C 2.535156 -3.664062 2.828125 -3.601562 3.203125 -3.53125 C 3.703125 -3.445312 4.101562 -3.351562 4.40625 -3.25 C 4.71875 -3.15625 4.984375 -2.988281 5.203125 -2.75 C 5.421875 -2.519531 5.53125 -2.191406 5.53125 -1.765625 C 5.53125 -1.203125 5.289062 -0.753906 4.8125 -0.421875 C 4.332031 -0.0859375 3.675781 0.078125 2.84375 0.078125 Z M 2.84375 0.078125 "/></g></g></g><g fill="#000000" fill-opacity="1"><g transform="translate(151.768198, 327.544402)"><g/></g></g><g fill="#000000" fill-opacity="1"><g transform="translate(158.441567, 327.544402)"><g><path d="M 8.84375 -6.28125 C 9.625 -6.28125 10.242188 -6.050781 10.703125 -5.59375 C 11.160156 -5.144531 11.390625 -4.472656 11.390625 -3.578125 L 11.390625 0 L 10.265625 0 L 10.265625 -3.453125 C 10.265625 -4.054688 10.125 -4.507812 9.84375 -4.8125 C 9.570312 -5.113281 9.175781 -5.265625 8.65625 -5.265625 C 8.082031 -5.265625 7.628906 -5.085938 7.296875 -4.734375 C 6.960938 -4.378906 6.796875 -3.867188 6.796875 -3.203125 L 6.796875 0 L 5.671875 0 L 5.671875 -3.453125 C 5.671875 -4.054688 5.53125 -4.507812 5.25 -4.8125 C 4.96875 -5.113281 4.570312 -5.265625 4.0625 -5.265625 C 3.488281 -5.265625 3.03125 -5.085938 2.6875 -4.734375 C 2.351562 -4.378906 2.1875 -3.867188 2.1875 -3.203125 L 2.1875 0 L 1.0625 0 L 1.0625 -6.21875 L 2.140625 -6.21875 L 2.140625 -5.296875 C 2.367188 -5.609375 2.664062 -5.847656 3.03125 -6.015625 C 3.40625 -6.191406 3.828125 -6.28125 4.296875 -6.28125 C 4.773438 -6.28125 5.203125 -6.179688 5.578125 -5.984375 C 5.960938 -5.785156 6.253906 -5.5 6.453125 -5.125 C 6.691406 -5.488281 7.019531 -5.769531 7.4375 -5.96875 C 7.851562 -6.175781 8.320312 -6.28125 8.84375 -6.28125 Z M 8.84375 -6.28125 "/></g></g></g><g fill="#000000" fill-opacity="1"><g transform="translate(174.349312, 327.544402)"><g><path d="M 3.328125 -6.28125 C 4.191406 -6.28125 4.851562 -6.066406 5.3125 -5.640625 C 5.769531 -5.222656 6 -4.59375 6 -3.75 L 6 0 L 4.921875 0 L 4.921875 -0.828125 C 4.734375 -0.535156 4.46875 -0.3125 4.125 -0.15625 C 3.78125 0 3.367188 0.078125 2.890625 0.078125 C 2.191406 0.078125 1.632812 -0.0859375 1.21875 -0.421875 C 0.800781 -0.765625 0.59375 -1.210938 0.59375 -1.765625 C 0.59375 -2.304688 0.789062 -2.742188 1.1875 -3.078125 C 1.582031 -3.410156 2.21875 -3.578125 3.09375 -3.578125 L 4.875 -3.578125 L 4.875 -3.796875 C 4.875 -4.285156 4.734375 -4.65625 4.453125 -4.90625 C 4.171875 -5.164062 3.753906 -5.296875 3.203125 -5.296875 C 2.835938 -5.296875 2.476562 -5.234375 2.125 -5.109375 C 1.769531 -4.992188 1.472656 -4.835938 1.234375 -4.640625 L 0.765625 -5.484375 C 1.085938 -5.742188 1.46875 -5.941406 1.90625 -6.078125 C 2.351562 -6.210938 2.828125 -6.28125 3.328125 -6.28125 Z M 3.078125 -0.796875 C 3.503906 -0.796875 3.875 -0.890625 4.1875 -1.078125 C 4.5 -1.273438 4.726562 -1.550781 4.875 -1.90625 L 4.875 -2.765625 L 3.140625 -2.765625 C 2.179688 -2.765625 1.703125 -2.445312 1.703125 -1.8125 C 1.703125 -1.5 1.820312 -1.25 2.0625 -1.0625 C 2.300781 -0.882812 2.640625 -0.796875 3.078125 -0.796875 Z M 3.078125 -0.796875 "/></g></g></g><g fill="#000000" fill-opacity="1"><g transform="translate(184.87815, 327.544402)"><g><path d="M 6.9375 -8.703125 L 6.9375 0 L 5.859375 0 L 5.859375 -0.984375 C 5.609375 -0.640625 5.289062 -0.375 4.90625 -0.1875 C 4.519531 -0.0078125 4.097656 0.078125 3.640625 0.078125 C 3.035156 0.078125 2.492188 -0.0546875 2.015625 -0.328125 C 1.535156 -0.597656 1.160156 -0.972656 0.890625 -1.453125 C 0.628906 -1.929688 0.5 -2.484375 0.5 -3.109375 C 0.5 -3.734375 0.628906 -4.285156 0.890625 -4.765625 C 1.160156 -5.242188 1.535156 -5.613281 2.015625 -5.875 C 2.492188 -6.144531 3.035156 -6.28125 3.640625 -6.28125 C 4.085938 -6.28125 4.5 -6.191406 4.875 -6.015625 C 5.25 -5.847656 5.5625 -5.601562 5.8125 -5.28125 L 5.8125 -8.703125 Z M 3.734375 -0.921875 C 4.117188 -0.921875 4.472656 -1.007812 4.796875 -1.1875 C 5.117188 -1.375 5.367188 -1.632812 5.546875 -1.96875 C 5.722656 -2.300781 5.8125 -2.679688 5.8125 -3.109375 C 5.8125 -3.535156 5.722656 -3.914062 5.546875 -4.25 C 5.367188 -4.582031 5.117188 -4.835938 4.796875 -5.015625 C 4.472656 -5.203125 4.117188 -5.296875 3.734375 -5.296875 C 3.335938 -5.296875 2.976562 -5.203125 2.65625 -5.015625 C 2.34375 -4.835938 2.09375 -4.582031 1.90625 -4.25 C 1.71875 -3.914062 1.625 -3.535156 1.625 -3.109375 C 1.625 -2.679688 1.71875 -2.300781 1.90625 -1.96875 C 2.09375 -1.632812 2.34375 -1.375 2.65625 -1.1875 C 2.976562 -1.007812 3.335938 -0.921875 3.734375 -0.921875 Z M 3.734375 -0.921875 "/></g></g></g><g fill="#000000" fill-opacity="1"><g transform="translate(196.391358, 327.544402)"><g><path d="M 6.6875 -3.078125 C 6.6875 -2.992188 6.679688 -2.878906 6.671875 -2.734375 L 1.625 -2.734375 C 1.6875 -2.179688 1.921875 -1.738281 2.328125 -1.40625 C 2.742188 -1.082031 3.257812 -0.921875 3.875 -0.921875 C 4.613281 -0.921875 5.210938 -1.171875 5.671875 -1.671875 L 6.296875 -0.9375 C 6.015625 -0.613281 5.660156 -0.363281 5.234375 -0.1875 C 4.816406 -0.0078125 4.351562 0.078125 3.84375 0.078125 C 3.175781 0.078125 2.585938 -0.0546875 2.078125 -0.328125 C 1.578125 -0.597656 1.1875 -0.972656 0.90625 -1.453125 C 0.632812 -1.941406 0.5 -2.492188 0.5 -3.109375 C 0.5 -3.710938 0.628906 -4.253906 0.890625 -4.734375 C 1.160156 -5.222656 1.53125 -5.601562 2 -5.875 C 2.476562 -6.144531 3.015625 -6.28125 3.609375 -6.28125 C 4.203125 -6.28125 4.734375 -6.144531 5.203125 -5.875 C 5.671875 -5.601562 6.035156 -5.222656 6.296875 -4.734375 C 6.554688 -4.253906 6.6875 -3.703125 6.6875 -3.078125 Z M 3.609375 -5.328125 C 3.066406 -5.328125 2.613281 -5.160156 2.25 -4.828125 C 1.894531 -4.503906 1.6875 -4.078125 1.625 -3.546875 L 5.609375 -3.546875 C 5.546875 -4.066406 5.332031 -4.492188 4.96875 -4.828125 C 4.601562 -5.160156 4.148438 -5.328125 3.609375 -5.328125 Z M 3.609375 -5.328125 "/></g></g></g><g fill="#000000" fill-opacity="1"><g transform="translate(207.084259, 327.544402)"><g/></g></g><g fill="#000000" fill-opacity="1"><g transform="translate(213.757628, 327.544402)"><g><path d="M 10.484375 -6.21875 L 8.15625 0 L 7.078125 0 L 5.28125 -4.71875 L 3.46875 0 L 2.375 0 L 0.078125 -6.21875 L 1.140625 -6.21875 L 2.953125 -1.265625 L 4.828125 -6.21875 L 5.765625 -6.21875 L 7.609375 -1.25 L 9.46875 -6.21875 Z M 10.484375 -6.21875 "/></g></g></g><g fill="#000000" fill-opacity="1"><g transform="translate(227.81381, 327.544402)"><g><path d="M 1.0625 -6.21875 L 2.1875 -6.21875 L 2.1875 0 L 1.0625 0 Z M 1.640625 -7.421875 C 1.421875 -7.421875 1.238281 -7.488281 1.09375 -7.625 C 0.945312 -7.769531 0.875 -7.941406 0.875 -8.140625 C 0.875 -8.347656 0.945312 -8.523438 1.09375 -8.671875 C 1.238281 -8.816406 1.421875 -8.890625 1.640625 -8.890625 C 1.859375 -8.890625 2.039062 -8.816406 2.1875 -8.671875 C 2.332031 -8.535156 2.40625 -8.367188 2.40625 -8.171875 C 2.40625 -7.953125 2.332031 -7.769531 2.1875 -7.625 C 2.039062 -7.488281 1.859375 -7.421875 1.640625 -7.421875 Z M 1.640625 -7.421875 "/></g></g></g><g fill="#000000" fill-opacity="1"><g transform="translate(234.604368, 327.544402)"><g><path d="M 4.5625 -0.359375 C 4.394531 -0.222656 4.191406 -0.113281 3.953125 -0.03125 C 3.710938 0.0390625 3.460938 0.078125 3.203125 0.078125 C 2.578125 0.078125 2.09375 -0.0859375 1.75 -0.421875 C 1.40625 -0.765625 1.234375 -1.25 1.234375 -1.875 L 1.234375 -5.296875 L 0.171875 -5.296875 L 0.171875 -6.21875 L 1.234375 -6.21875 L 1.234375 -7.578125 L 2.359375 -7.578125 L 2.359375 -6.21875 L 4.140625 -6.21875 L 4.140625 -5.296875 L 2.359375 -5.296875 L 2.359375 -1.921875 C 2.359375 -1.585938 2.441406 -1.328125 2.609375 -1.140625 C 2.773438 -0.960938 3.015625 -0.875 3.328125 -0.875 C 3.671875 -0.875 3.96875 -0.972656 4.21875 -1.171875 Z M 4.5625 -0.359375 "/></g></g></g><g fill="#000000" fill-opacity="1"><g transform="translate(242.976956, 327.544402)"><g><path d="M 4.390625 -6.28125 C 5.179688 -6.28125 5.804688 -6.050781 6.265625 -5.59375 C 6.734375 -5.132812 6.96875 -4.460938 6.96875 -3.578125 L 6.96875 0 L 5.84375 0 L 5.84375 -3.453125 C 5.84375 -4.054688 5.695312 -4.507812 5.40625 -4.8125 C 5.113281 -5.113281 4.703125 -5.265625 4.171875 -5.265625 C 3.554688 -5.265625 3.070312 -5.085938 2.71875 -4.734375 C 2.363281 -4.378906 2.1875 -3.867188 2.1875 -3.203125 L 2.1875 0 L 1.0625 0 L 1.0625 -8.703125 L 2.1875 -8.703125 L 2.1875 -5.34375 C 2.425781 -5.632812 2.734375 -5.863281 3.109375 -6.03125 C 3.492188 -6.195312 3.921875 -6.28125 4.390625 -6.28125 Z M 4.390625 -6.28125 "/></g></g></g><g fill="#000000" fill-opacity="1"><g transform="translate(254.478451, 327.544402)"><g/></g></g><g fill="#000000" fill-opacity="1"><g transform="translate(261.151821, 327.544402)"><g><path d="M 1.234375 -8.21875 L 2.40625 -8.21875 L 2.40625 -1.015625 L 6.859375 -1.015625 L 6.859375 0 L 1.234375 0 Z M 1.234375 -8.21875 "/></g></g></g><g fill="#000000" fill-opacity="1"><g transform="translate(271.633784, 327.544402)"><g><path d="M 3.734375 0.078125 C 3.109375 0.078125 2.550781 -0.0546875 2.0625 -0.328125 C 1.570312 -0.609375 1.1875 -0.988281 0.90625 -1.46875 C 0.632812 -1.945312 0.5 -2.492188 0.5 -3.109375 C 0.5 -3.722656 0.632812 -4.269531 0.90625 -4.75 C 1.1875 -5.226562 1.570312 -5.601562 2.0625 -5.875 C 2.550781 -6.144531 3.109375 -6.28125 3.734375 -6.28125 C 4.347656 -6.28125 4.898438 -6.144531 5.390625 -5.875 C 5.878906 -5.601562 6.257812 -5.226562 6.53125 -4.75 C 6.8125 -4.269531 6.953125 -3.722656 6.953125 -3.109375 C 6.953125 -2.492188 6.8125 -1.945312 6.53125 -1.46875 C 6.257812 -0.988281 5.878906 -0.609375 5.390625 -0.328125 C 4.898438 -0.0546875 4.347656 0.078125 3.734375 0.078125 Z M 3.734375 -0.921875 C 4.128906 -0.921875 4.484375 -1.007812 4.796875 -1.1875 C 5.117188 -1.375 5.367188 -1.632812 5.546875 -1.96875 C 5.722656 -2.300781 5.8125 -2.679688 5.8125 -3.109375 C 5.8125 -3.535156 5.722656 -3.914062 5.546875 -4.25 C 5.367188 -4.582031 5.117188 -4.835938 4.796875 -5.015625 C 4.484375 -5.203125 4.128906 -5.296875 3.734375 -5.296875 C 3.335938 -5.296875 2.976562 -5.203125 2.65625 -5.015625 C 2.34375 -4.835938 2.09375 -4.582031 1.90625 -4.25 C 1.71875 -3.914062 1.625 -3.535156 1.625 -3.109375 C 1.625 -2.679688 1.71875 -2.300781 1.90625 -1.96875 C 2.09375 -1.632812 2.34375 -1.375 2.65625 -1.1875 C 2.976562 -1.007812 3.335938 -0.921875 3.734375 -0.921875 Z M 3.734375 -0.921875 "/></g></g></g><g fill="#000000" fill-opacity="1"><g transform="translate(282.596216, 327.544402)"><g><path d="M 6.578125 -6.21875 L 3.84375 0 L 2.703125 0 L -0.03125 -6.21875 L 1.15625 -6.21875 L 3.28125 -1.234375 L 5.46875 -6.21875 Z M 6.578125 -6.21875 "/></g></g></g><g fill="#000000" fill-opacity="1"><g transform="translate(292.668012, 327.544402)"><g><path d="M 6.6875 -3.078125 C 6.6875 -2.992188 6.679688 -2.878906 6.671875 -2.734375 L 1.625 -2.734375 C 1.6875 -2.179688 1.921875 -1.738281 2.328125 -1.40625 C 2.742188 -1.082031 3.257812 -0.921875 3.875 -0.921875 C 4.613281 -0.921875 5.210938 -1.171875 5.671875 -1.671875 L 6.296875 -0.9375 C 6.015625 -0.613281 5.660156 -0.363281 5.234375 -0.1875 C 4.816406 -0.0078125 4.351562 0.078125 3.84375 0.078125 C 3.175781 0.078125 2.585938 -0.0546875 2.078125 -0.328125 C 1.578125 -0.597656 1.1875 -0.972656 0.90625 -1.453125 C 0.632812 -1.941406 0.5 -2.492188 0.5 -3.109375 C 0.5 -3.710938 0.628906 -4.253906 0.890625 -4.734375 C 1.160156 -5.222656 1.53125 -5.601562 2 -5.875 C 2.476562 -6.144531 3.015625 -6.28125 3.609375 -6.28125 C 4.203125 -6.28125 4.734375 -6.144531 5.203125 -5.875 C 5.671875 -5.601562 6.035156 -5.222656 6.296875 -4.734375 C 6.554688 -4.253906 6.6875 -3.703125 6.6875 -3.078125 Z M 3.609375 -5.328125 C 3.066406 -5.328125 2.613281 -5.160156 2.25 -4.828125 C 1.894531 -4.503906 1.6875 -4.078125 1.625 -3.546875 L 5.609375 -3.546875 C 5.546875 -4.066406 5.332031 -4.492188 4.96875 -4.828125 C 4.601562 -5.160156 4.148438 -5.328125 3.609375 -5.328125 Z M 3.609375 -5.328125 "/></g></g></g></svg>